<svg width="165" height="46" viewBox="0 0 165 46" fill="none" xmlns="http://www.w3.org/2000/svg">
<path d="M0 18.8088L18.1184 3.35441C23.2641 -1.03483 30.759 -1.06179 35.9131 2.95191C31.2288 1.13463 25.6992 1.88011 21.6351 5.34667L3.51672 20.801L0 18.8088Z" fill="#EF7C00"/>
<path d="M6.66864 22.5866L24.7869 7.13236C29.9326 2.74304 37.4275 2.71617 42.5816 6.72987C37.8972 4.91259 32.3678 5.65806 28.3035 9.12462L10.1853 24.579L6.66864 22.5866Z" fill="#EF7C00"/>
<path d="M13.3363 26.3649L31.4546 10.9102C36.6002 6.5211 44.0952 6.49415 49.2493 10.5077C44.5651 8.69056 39.0355 9.43594 34.9713 12.9026L16.853 28.3571L13.3363 26.3649Z" fill="#EF7C00"/>
<path d="M57.7423 27.1907L39.6235 42.6457C34.4777 47.0348 26.9829 47.0618 21.8287 43.0483C26.513 44.8653 32.0425 44.1201 36.1068 40.6534L54.2259 25.1984L57.7423 27.1907Z" fill="#C70B6F"/>
<path d="M51.0749 23.413L32.9561 38.8679C27.8103 43.2571 20.3152 43.2842 15.1613 39.2703C19.8454 41.0877 25.375 40.3421 29.4391 36.8757L47.5582 21.4205L51.0749 23.413Z" fill="#C70B6F"/>
<path d="M44.4061 19.6348L26.2871 35.0899C21.1413 39.4793 13.6464 39.5061 8.49249 35.4925C13.1767 37.3099 18.7063 36.5643 22.7704 33.0976L40.8894 17.6425L44.4061 19.6348Z" fill="#C70B6F"/>
<path d="M85.0288 19.3199C85.0288 14.7606 82.9786 11.9599 76.0939 11.9599C73.3404 11.9599 70.4901 12.6033 68.3393 13.3628L68.812 17.881C70.6196 16.8675 73.2011 16.2343 75.1374 16.2343C78.2356 16.2343 79.311 17.374 79.311 19.5695V20.7098C72.0397 20.7098 66.9618 23.3692 66.9618 28.3937C66.9618 31.7717 69.1849 34.04 73.0572 34.04C76.2415 34.04 78.9739 32.0916 80.0066 29.7274L79.9565 29.9561C79.7844 31.054 79.4225 32.8152 79.4225 34.04H85.0288V19.3199ZM79.311 24.721C79.311 27.254 77.4609 29.7872 74.75 29.7872C73.1586 29.7872 72.2117 28.9009 72.2117 27.5493C72.2117 25.8608 73.5024 24.214 79.311 24.214V24.721Z" fill="#39434D"/>
<path d="M104.65 33.0535L104.209 28.3804C103.017 28.9811 101.385 29.2806 99.8846 29.2806C96.1346 29.2806 94.6783 26.794 94.6783 23.1501C94.6783 19.1195 96.4873 16.5473 100.061 16.5473C101.474 16.5473 102.841 16.8901 104.033 17.3191L104.606 12.5599C103.194 12.1738 101.606 11.9599 100.106 11.9599C92.3401 11.9599 88.7658 17.062 88.7658 23.7075C88.7658 30.9529 92.5604 34.04 98.6495 34.04C100.988 34.04 103.15 33.6108 104.65 33.0535Z" fill="#39434D"/>
<path d="M139.223 18.5149C139.223 14.8908 137.665 11.9599 132.82 11.9599C129.316 11.9599 126.807 13.6677 125.509 16.125L125.465 16.0836C125.683 15.0006 126.142 12.9179 126.142 11.9599H120.534V34.04H126.142V23.1149C126.142 19.4915 128.278 16.4166 131.09 16.4166C133.123 16.4166 133.617 17.6139 133.617 19.7799V34.04H139.223V18.5149Z" fill="#39434D"/>
<path d="M164.45 22.5944C164.45 15.2911 160.601 11.9599 154.637 11.9599C148.25 11.9599 143.894 16.7431 143.894 23.3628C143.894 30.9223 147.742 34.04 153.707 34.04C160.009 34.04 164.45 29.2565 164.45 22.5944ZM158.867 22.893C158.867 27.2071 156.837 29.385 154.172 29.385C151.042 29.385 149.476 27.1641 149.476 22.8075C149.476 18.4518 151.845 16.5723 154.257 16.5723C157.428 16.5723 158.867 18.7932 158.867 22.893Z" fill="#39434D"/>
<path d="M114.928 34.04V11.9599H109.322V34.04H114.928Z" fill="#39434D"/>
<path d="M114.928 6.42227C114.928 4.89093 113.659 3.68021 112.108 3.68021C110.556 3.68021 109.322 4.92681 109.322 6.42227C109.322 7.95417 110.556 9.20021 112.108 9.20021C113.659 9.20021 114.928 7.95417 114.928 6.42227Z" fill="#39434D"/>
</svg>
