<svg width="103" height="96" viewBox="0 0 103 96" fill="none" xmlns="http://www.w3.org/2000/svg">
<path d="M41.5412 30.7627H23.3247L12.299 46.1029L21.4072 64.2689L41.5412 65.2782L50.6495 47.1121L41.5412 30.7627Z" fill="white"/>
<path d="M76.8295 12.9995H57.8551L49 29.2193L57.8551 44.9995H76.8296L86 29.2193L76.8295 12.9995Z" fill="white"/>
<path d="M77.4949 51.8555H57.3608L49.6907 68.1544L58.799 82.5359H78.933L87.0825 66.2369L77.4949 51.8555Z" fill="white"/>
<path d="M21.9639 62.6647L13.6829 72.7859M23.8041 31.3809L15.5231 19.4194M13.4356 46.0038H0M76.6929 14.1534L84.8992 1.40723M85.1649 28.7301L100.273 27.4893M87.0824 66.0807L102.191 64.8398M77.4949 82.5356L86.1237 94.9995M41.5412 30.7627H23.3247L12.299 46.1029L21.4072 64.2689L41.5412 65.2782L50.6495 47.1121L41.5412 30.7627ZM76.8295 12.9995H57.8551L49 29.2193L57.8551 44.9995H76.8296L86 29.2193L76.8295 12.9995ZM77.4949 51.8555H57.3608L49.6907 68.1544L58.799 82.5359H78.933L87.0825 66.2369L77.4949 51.8555Z" stroke="white" stroke-width="2"/>
</svg>