<svg width="129" height="106" viewBox="0 0 129 106" fill="none" xmlns="http://www.w3.org/2000/svg">
<g filter="url(#filter0_d)">
<path d="M46.9639 65.6649L38.6829 75.7861" stroke="white" stroke-width="2"/>
<path d="M48.8041 34.3809L40.5231 22.4194" stroke="white" stroke-width="2"/>
<path d="M38.4356 49.0039H25" stroke="white" stroke-width="2"/>
</g>
<path d="M101.693 17.1534L109.899 4.40723" stroke="white" stroke-width="2"/>
<path d="M110.165 31.7301L125.273 30.4893" stroke="white" stroke-width="2"/>
<path d="M112.082 69.0807L127.191 67.8398" stroke="white" stroke-width="2"/>
<path d="M102.495 85.5356L111.124 97.9995" stroke="white" stroke-width="2"/>
<path d="M66.5412 33.7627H48.3247L37.299 49.1029L46.4072 67.2689L66.5412 68.2782L75.6495 50.1121L71.0954 41.9374L66.5412 33.7627Z" fill="white"/>
<path d="M101.829 15.9995H82.8551L74 32.2193L82.8551 47.9995H101.83L111 32.2193L101.829 15.9995Z" fill="white"/>
<path d="M102.495 54.8555H82.3608L74.6907 71.1544L83.799 85.5359H103.933L112.082 69.2369L102.495 54.8555Z" fill="white" stroke="white" stroke-width="2"/>
<defs>
<filter id="filter0_d" x="0" y="0.850098" width="74.6263" height="104.569" filterUnits="userSpaceOnUse" color-interpolation-filters="sRGB">
<feFlood flood-opacity="0" result="BackgroundImageFix"/>
<feColorMatrix in="SourceAlpha" type="matrix" values="0 0 0 0 0 0 0 0 0 0 0 0 0 0 0 0 0 0 127 0"/>
<feOffset dy="4"/>
<feGaussianBlur stdDeviation="12.5"/>
<feColorMatrix type="matrix" values="0 0 0 0 0 0 0 0 0 0 0 0 0 0 0 0 0 0 0.25 0"/>
<feBlend mode="normal" in2="BackgroundImageFix" result="effect1_dropShadow"/>
<feBlend mode="normal" in="SourceGraphic" in2="effect1_dropShadow" result="shape"/>
</filter>
</defs>
</svg>
